<svg xmlns="http://www.w3.org/2000/svg" width="18" height="18" viewBox="-1 0 20 18">
    <g fill="none" fill-rule="evenodd">
        <path fill="#1976D2" d="M13.2 15.26a2.665 2.665 0 0 1-2.958-.746l-.005.006-3.766-4.553.005-.007a.951.951 0 0 1-.11-.201A.969.969 0 0 1 6.93 8.5a.992.992 0 0 1 .687-.004l.002-.003 5.2 1.785c.837.184 1.568.761 1.899 1.608.526 1.345-.154 2.855-1.518 3.374M11.174 2.862c1.187-.385 2.466.251 2.857 1.421A2.223 2.223 0 0 1 12.59 7.1c-1.186.385-2.465-.252-2.856-1.421a2.223 2.223 0 0 1 1.441-2.816m7.205 1.511a1.03 1.03 0 0 0-.595-.405v-.003l-.876-.233c-.012-.041-.02-.083-.035-.125C15.964.886 12.99-.594 10.228.302a5.218 5.218 0 0 0-3.113 2.721L5.533 5.57l-3.755-1.5-.002.002a1.11 1.11 0 0 0-.769-.033c-.58.188-.895.804-.704 1.375.028.084.067.16.112.232l-.006.007 3.917 5.251.009.015.012.013 2.826 3.97c1.113 2.345 3.85 3.556 6.408 2.726 2.761-.896 4.263-3.828 3.354-6.55a5.155 5.155 0 0 0-1.381-2.145 5.183 5.183 0 0 0 1.497-2.766l.847-.248v-.01a1.015 1.015 0 0 0 .482-1.536"/>
    </g>
</svg>
