<svg width="60" height="60" viewBox="0 0 60 60" fill="none" xmlns="http://www.w3.org/2000/svg">
<g clip-path="url(#clip0)">
<path fill-rule="evenodd" clip-rule="evenodd" d="M30 0C13.4382 0 0 13.4382 0 30C0 46.5618 13.4382 60 30 60C46.5293 60 60 46.5618 60 30C60 13.4382 46.5293 0 30 0ZM49.8156 13.8286C53.3948 18.1887 55.5423 23.7527 55.6074 29.7722C54.7614 29.6095 46.3015 27.8851 37.7766 28.9588C37.5814 28.5358 37.4186 28.0802 37.2235 27.6247C36.7028 26.3883 36.1171 25.1193 35.5315 23.9154C44.9675 20.0759 49.2625 14.5445 49.8156 13.8286ZM30 4.42516C36.5076 4.42516 42.4621 6.8655 46.9848 10.8677C46.5293 11.5184 42.6572 16.692 33.5467 20.1085C29.3492 12.397 24.6963 6.0846 23.9805 5.10846C25.9002 4.65293 27.9176 4.42516 30 4.42516ZM19.0998 6.83298C19.7831 7.74402 24.3384 14.089 28.6009 21.6377C16.6269 24.8264 6.05208 24.7614 4.91323 24.7614C6.57264 16.8221 11.9414 10.2169 19.0998 6.83298ZM4.36009 30.0325C4.36009 29.7722 4.36009 29.512 4.36009 29.2516C5.46638 29.2841 17.8959 29.4469 30.6833 25.6074C31.4317 27.0391 32.1149 28.5032 32.7657 29.9675C32.4403 30.0651 32.0824 30.1627 31.757 30.2603C18.5467 34.5228 11.5184 46.1714 10.9328 47.1475C6.8655 42.6247 4.36009 36.6052 4.36009 30.0325ZM30 55.6399C24.0781 55.6399 18.6117 53.6225 14.2841 50.2386C14.7397 49.295 19.9458 39.2733 34.3926 34.2299C34.4577 34.1974 34.4902 34.1974 34.5553 34.1648C38.167 43.5032 39.6313 51.3449 40.0217 53.59C36.9306 54.9241 33.5467 55.6399 30 55.6399ZM44.2842 51.2473C44.0239 49.6855 42.6573 42.2017 39.3059 32.9935C47.3428 31.7245 54.3709 33.8069 55.2494 34.0998C54.1432 41.2256 50.0434 47.3753 44.2842 51.2473Z" fill="#EA4C89"/>
</g>
<defs>
<clipPath id="clip0">
<rect width="60" height="60" fill="white"/>
</clipPath>
</defs>
</svg>
