<svg width="60" height="60" viewBox="0 0 60 60" fill="none" xmlns="http://www.w3.org/2000/svg">
<path d="M54.375 1.40647H5.625C4.5189 1.39521 3.4535 1.82321 2.66259 2.59654C1.87168 3.36988 1.41985 4.42539 1.40625 5.53147V54.4783C1.42231 55.5828 1.87522 56.6359 2.66586 57.4072C3.45651 58.1785 4.5205 58.6052 5.625 58.594H54.375C55.4812 58.6027 56.5458 58.1733 57.3364 57.3995C58.1269 56.6257 58.5789 55.5704 58.5938 54.4643V5.5174C58.574 4.41457 58.1198 3.36409 57.3298 2.59431C56.5399 1.82452 55.478 1.39764 54.375 1.40647V1.40647Z" fill="#0076B2"/>
<path d="M9.8719 22.8423H18.361V50.1563H9.8719V22.8423ZM14.1188 9.24854C15.0924 9.24854 16.0442 9.53732 16.8537 10.0783C17.6632 10.6194 18.2941 11.3883 18.6664 12.288C19.0388 13.1876 19.136 14.1775 18.9457 15.1323C18.7554 16.0872 18.2862 16.9642 17.5974 17.6524C16.9086 18.3405 16.0312 18.8089 15.0761 18.9983C14.1211 19.1877 13.1313 19.0895 12.232 18.7163C11.3327 18.343 10.5644 17.7115 10.0241 16.9014C9.48385 16.0914 9.19597 15.1394 9.1969 14.1657C9.19814 12.8612 9.71725 11.6105 10.6401 10.6885C11.563 9.76644 12.8142 9.24853 14.1188 9.24854Z" fill="white"/>
<path d="M23.686 22.8424H31.8235V26.5924H31.936C33.0703 24.4455 35.836 22.1814 39.9657 22.1814C48.5625 22.1627 50.1563 27.8205 50.1563 35.1564V50.1564H41.6672V36.8674C41.6672 33.7033 41.611 29.6299 37.2563 29.6299C32.9016 29.6299 32.161 33.0799 32.161 36.6611V50.1564H23.686V22.8424Z" fill="white"/>
</svg>
