<svg width="60" height="60" viewBox="0 0 60 60" fill="none" xmlns="http://www.w3.org/2000/svg">
<g clip-path="url(#clip0)">
<path d="M30 24C28.8181 24 27.6478 24.2328 26.5558 24.6851C25.4639 25.1374 24.4718 25.8003 23.636 26.636C22.8003 27.4718 22.1374 28.4639 21.6851 29.5558C21.2328 30.6478 21 31.8181 21 33C21 34.1819 21.2328 35.3522 21.6851 36.4441C22.1374 37.5361 22.8003 38.5282 23.636 39.364C24.4718 40.1997 25.4639 40.8626 26.5558 41.3149C27.6478 41.7672 28.8181 42 30 42C32.3869 42 34.6761 41.0518 36.364 39.364C38.0518 37.6761 39 35.3869 39 33C39 30.613 38.0518 28.3239 36.364 26.636C34.6761 24.9482 32.3869 24 30 24V24ZM54 15H46.8C46.2818 14.9764 45.7818 14.802 45.3613 14.4982C44.9409 14.1944 44.6182 13.7745 44.433 13.29L42.57 7.707C42.3835 7.22302 42.06 6.80385 41.6391 6.5007C41.2182 6.19756 40.7182 6.02357 40.2 6H19.8C18.81 6 17.742 6.768 17.433 7.704L15.567 13.29C15.3815 13.7743 15.0587 14.194 14.6383 14.4977C14.2179 14.8014 13.7181 14.976 13.2 15H6C2.7 15 0 17.7 0 21V48C0 51.3 2.7 54 6 54H54C57.3 54 60 51.3 60 48V21C60 17.7 57.3 15 54 15ZM30 48C26.0218 48 22.2064 46.4196 19.3934 43.6066C16.5804 40.7936 15 36.9782 15 33C15 29.0218 16.5804 25.2064 19.3934 22.3934C22.2064 19.5804 26.0218 18 30 18C33.9782 18 37.7936 19.5804 40.6066 22.3934C43.4196 25.2064 45 29.0218 45 33C45 36.9782 43.4196 40.7936 40.6066 43.6066C37.7936 46.4196 33.9782 48 30 48ZM52.5 24.6C51.943 24.6 51.4089 24.3787 51.0151 23.9849C50.6213 23.5911 50.4 23.057 50.4 22.5C50.4 21.943 50.6213 21.4089 51.0151 21.0151C51.4089 20.6212 51.943 20.4 52.5 20.4C53.057 20.4 53.5911 20.6212 53.9849 21.0151C54.3787 21.4089 54.6 21.943 54.6 22.5C54.6 23.057 54.3787 23.5911 53.9849 23.9849C53.5911 24.3787 53.057 24.6 52.5 24.6Z" fill="#444444"/>
</g>
<defs>
<clipPath id="clip0">
<rect width="60" height="60" fill="white"/>
</clipPath>
</defs>
</svg>
