<svg xmlns="http://www.w3.org/2000/svg" width="77" height="18" viewBox="0 0 77 18">
    <g fill="none" fill-rule="evenodd">
        <path fill="#1976D2" d="M13.2 15.26a2.665 2.665 0 0 1-2.958-.746l-.005.006-3.766-4.553.005-.007a.951.951 0 0 1-.11-.201A.969.969 0 0 1 6.93 8.5a.992.992 0 0 1 .687-.004l.002-.003 5.2 1.785c.837.184 1.568.761 1.899 1.608.526 1.345-.154 2.855-1.518 3.374M11.174 2.862c1.187-.385 2.466.251 2.857 1.421A2.223 2.223 0 0 1 12.59 7.1c-1.186.385-2.465-.252-2.856-1.421a2.223 2.223 0 0 1 1.441-2.816m7.205 1.511a1.03 1.03 0 0 0-.595-.405v-.003l-.876-.233c-.012-.041-.02-.083-.035-.125C15.964.886 12.99-.594 10.228.302a5.218 5.218 0 0 0-3.113 2.721L5.533 5.57l-3.755-1.5-.002.002a1.11 1.11 0 0 0-.769-.033c-.58.188-.895.804-.704 1.375.028.084.067.16.112.232l-.006.007 3.917 5.251.009.015.012.013 2.826 3.97c1.113 2.345 3.85 3.556 6.408 2.726 2.761-.896 4.263-3.828 3.354-6.55a5.155 5.155 0 0 0-1.381-2.145 5.183 5.183 0 0 0 1.497-2.766l.847-.248v-.01a1.015 1.015 0 0 0 .482-1.536"/>
        <path fill="#212121" d="M26.21 15.627h1.694c.499 0 .748-.245.748-.734v-2.237c0-.49-.25-.734-.748-.734H26.21v3.705zm0-5.647h1.694c.243 0 .386-.148.507-.268.121-.119.24-.221.24-.45V7.009c0-.489-.248-.734-.747-.734H26.21V9.98zm-2.03 7.061V4.852c0-.165.086-.247.258-.247h3.854c.757 0 1.334.193 1.732.58.396.388.595.957.595 1.705v2.914c0 .289-.096.538-.285.748-.19.208-.783.336-1.075.383l.352.031c.293.047.533.172.723.38.19.207.285.454.285.743v2.922c0 .75-.199 1.317-.595 1.704-.398.388-.975.582-1.732.582h-3.854a.253.253 0 0 1-.188-.07.247.247 0 0 1-.07-.186zM32.774 6.441c0-.17.087-.256.26-.256h1.674c.079 0 .142.023.19.07.045.046.07.108.07.186v10.6a.25.25 0 0 1-.07.186.258.258 0 0 1-.19.07h-1.674c-.173 0-.26-.086-.26-.256v-10.6zM38.962 12.014h1.852c.496 0 .746-.245.746-.734V8.514c0-.489-.25-.733-.746-.733h-1.852v4.233zm-1.924 5.027V6.44c0-.078.023-.14.07-.186a.257.257 0 0 1 .188-.07h3.869c.76 0 1.337.194 1.73.581.393.387.59.956.59 1.706v3.191c0 .925-.303 1.57-.905 1.938l.833 3.41c.048.19-.026.286-.22.286h-1.58c-.152 0-.244-.075-.275-.226l-.77-3.47h-1.432v3.44a.25.25 0 0 1-.07.186.257.257 0 0 1-.19.07h-1.58a.256.256 0 0 1-.188-.07.25.25 0 0 1-.07-.186zM47.583 15.74h1.708c.496 0 .744-.244.744-.733V8.501c0-.502-.248-.752-.744-.752h-1.708v7.992zm-2.03 1.301v-10.6c0-.17.087-.256.26-.256h3.87c.759 0 1.336.197 1.729.589.393.393.59.964.59 1.712v6.525c0 .75-.197 1.317-.59 1.705-.393.387-.97.58-1.73.58h-3.869c-.173 0-.26-.085-.26-.255zM54.148 17.041V4.852c0-.077.023-.138.068-.182a.24.24 0 0 1 .176-.065h5.752c.173 0 .26.082.26.247v1.242c0 .18-.087.27-.26.27h-4.04V9.89h3.087c.174 0 .261.087.261.263v1.4c0 .18-.087.271-.26.271h-3.089v3.729h3.864c.276 0 .344.018.382.054.036.036.054.1.054.193v1.242c0 .17-.086.256-.259.256h-5.752a.233.233 0 0 1-.176-.07.256.256 0 0 1-.068-.186M61.032 6.557a.315.315 0 0 1-.04-.143.2.2 0 0 1 .04-.12c.047-.073.13-.11.252-.11h1.611c.179 0 .301.087.37.257l1.808 4.43 1.8-4.43c.069-.17.191-.256.37-.256h1.611c.121 0 .205.036.252.108.027.037.04.078.04.125 0 .041-.01.088-.032.139l-2.949 6.579v3.842c0 .213-.107.319-.322.319h-1.548c-.215 0-.322-.106-.322-.319v-3.842l-2.941-6.579zM70.115 17.041v-10.6c0-.078.022-.14.067-.186a.232.232 0 0 1 .176-.07h5.752c.173 0 .26.086.26.256v1.241c0 .18-.087.27-.26.27h-3.978v2.79h3.027c.173 0 .26.09.26.271v1.4c0 .18-.087.27-.26.27h-3.027v2.869h3.978c.1 0 .169.018.205.054.036.036.055.1.055.193v1.242c0 .17-.087.256-.26.256h-5.752a.233.233 0 0 1-.176-.07.256.256 0 0 1-.067-.186"/>
    </g>
</svg>
